# xmcd CD database file
#
# Track frame offsets:
#	150
#	20724
#	44398
#	65839
#	93775
#	123323
#	150432
#	167513
#	184628
#
# Disc length: 2692 seconds
#
# Revision: 0
# Processed by: cddbd v1.4PL0 Copyright (c) Steve Scherf et al.
# Submitted via: CDex 1.50Beta7
#
DISCID=6b0a8209
DTITLE=WSU Jazz Big Band - 2003
DYEAR=2003
DGENRE=Jazz
TTITLE0=Movin' On
TTITLE1=Inside Passage
TTITLE2=They Say It's Wonderful
TTITLE3=Lock 'n' Load
TTITLE4=This Time, This Place
TTITLE5=Hangin' High on the Flat-Five
TTITLE6=Seven for Scott
TTITLE7=Sunrise at the Speakeasy Cafe
TTITLE8=Guided by the Moon
EXTD=YEAR: 2003
EXTT0=
EXTT1=
EXTT2=
EXTT3=
EXTT4=
EXTT5=
EXTT6=
EXTT7=
EXTT8=
PLAYORDER=
